<svg xmlns="http://www.w3.org/2000/svg" version="1.1" xmlns:xlink="http://www.w3.org/1999/xlink" width="1000" height="1000"><style>
    #light-icon {
      display: inline;
    }
    #dark-icon {
      display: none;
    }

    @media (prefers-color-scheme: dark) {
      #light-icon {
        display: none;
      }
      #dark-icon {
        display: inline;
      }
    }
  </style><g id="light-icon"><svg xmlns="http://www.w3.org/2000/svg" version="1.1" xmlns:xlink="http://www.w3.org/1999/xlink" width="1000" height="1000"><g><g transform="matrix(0.975609756097561,0,0,0.975609756097561,0,0)"><svg xmlns="http://www.w3.org/2000/svg" version="1.1" xmlns:xlink="http://www.w3.org/1999/xlink" width="1025" height="1025"><svg width="1025" height="1025" viewBox="0 0 1025 1025" fill="none" xmlns="http://www.w3.org/2000/svg">
<path d="M562.686 630.116L423.605 764.721C415.611 772.482 405.304 777.424 394.247 778.797C383.191 780.169 371.988 777.898 362.339 772.327C352.69 766.757 345.122 758.191 340.782 747.929C336.443 737.667 335.569 726.27 338.293 715.467L385.324 527.716L423.724 461.206L391.799 442.774C381.914 437.066 374.22 428.22 369.939 417.639C365.657 407.059 365.034 395.351 368.168 384.376L447.264 108.011C363.765 121.463 286.477 160.432 226.013 219.568C165.549 278.704 124.873 355.107 109.57 438.287C94.2674 521.466 105.089 607.344 140.548 684.127C176.007 760.91 234.365 824.834 307.61 867.122C380.854 909.409 465.393 927.987 549.619 920.304C633.845 912.621 713.627 879.054 778.011 824.212C842.395 769.369 888.224 695.941 909.206 614.01C930.187 532.078 925.291 445.661 895.191 366.623L695.356 573.278C687.425 581.474 676.983 586.786 665.689 588.373C654.395 589.96 642.894 587.73 633.011 582.038L601.086 563.606L562.686 630.116ZM717.205 157.682C667.372 128.777 611.972 110.776 554.667 104.87L477.673 374.112L649.537 473.337L844.21 272.038C810.445 225.361 767.156 186.383 717.205 157.682ZM768.405 69.0005C1013.3 210.389 1097.2 523.513 955.81 768.406C814.421 1013.3 501.298 1097.2 256.405 955.811C11.5125 814.422 -72.3887 501.298 69.0001 256.406C210.389 11.513 523.512 -72.3883 768.405 69.0005Z" fill="#1E1B4B"></path>
</svg></svg></g></g></svg></g><g id="dark-icon"><svg xmlns="http://www.w3.org/2000/svg" version="1.1" xmlns:xlink="http://www.w3.org/1999/xlink" width="1000" height="1000"><g><g transform="matrix(0.975609756097561,0,0,0.975609756097561,0,0)"><svg xmlns="http://www.w3.org/2000/svg" version="1.1" xmlns:xlink="http://www.w3.org/1999/xlink" width="1025" height="1025"><svg width="1025" height="1025" viewBox="0 0 1025 1025" fill="none" xmlns="http://www.w3.org/2000/svg">
<path d="M562.78 630.21L423.698 764.815C415.705 772.576 405.398 777.518 394.341 778.891C383.284 780.263 372.082 777.992 362.433 772.421C352.784 766.85 345.216 758.284 340.876 748.023C336.537 737.761 335.663 726.364 338.387 715.561L385.418 527.81L423.818 461.299L391.893 442.867C382.008 437.16 374.314 428.314 370.032 417.733C365.751 407.153 365.128 395.445 368.262 384.47L447.357 108.105C363.858 121.557 286.571 160.526 226.107 219.662C165.642 278.798 124.966 355.201 109.664 438.381C94.3611 521.56 105.182 607.437 140.641 684.22C176.101 761.004 234.459 824.928 307.703 867.215C380.948 909.503 465.487 928.081 549.713 920.398C633.938 912.715 713.721 879.148 778.105 824.305C842.489 769.463 888.318 696.035 909.299 614.104C930.281 532.172 925.385 445.754 895.285 366.716L695.45 573.372C687.518 581.567 677.077 586.88 665.783 588.467C654.489 590.053 642.988 587.824 633.105 582.131L601.18 563.699L562.78 630.21ZM717.299 157.775C667.466 128.87 612.066 110.87 554.761 104.964L477.767 374.205L649.631 473.431L844.304 272.132C810.539 225.455 767.249 186.477 717.299 157.775ZM768.499 69.0943C1013.39 210.483 1097.29 523.607 955.904 768.499C814.515 1013.39 501.391 1097.29 256.499 955.904C11.6062 814.515 -72.295 501.392 69.0938 256.499C210.483 11.6067 523.606 -72.2945 768.499 69.0943Z" fill="#A5B4FC"></path>
</svg></svg></g></g></svg></g></svg>