<svg xmlns="http://www.w3.org/2000/svg" version="1.1" xmlns:xlink="http://www.w3.org/1999/xlink" width="1024" height="1024"><svg width="1024" height="1024" viewBox="0 0 1024 1024" fill="none" xmlns="http://www.w3.org/2000/svg">
<path fill-rule="evenodd" clip-rule="evenodd" d="M955.331 767.958C813.969 1012.8 500.888 1096.69 256.043 955.331C11.1965 813.969 -72.6919 500.888 68.6693 256.043C210.031 11.1969 523.111 -72.6924 767.957 68.6697C1012.8 210.031 1096.69 523.111 955.331 767.958ZM302.581 874.725C502.908 990.384 759.066 921.747 874.725 721.42C990.384 521.092 921.748 264.932 721.42 149.273C521.093 33.6142 264.932 102.252 149.273 302.58C33.614 502.907 102.253 759.066 302.581 874.725Z" fill="#38A3EE"></path>
<path fill-rule="evenodd" clip-rule="evenodd" d="M459.697 704.698C446.485 711.821 422.793 721.684 398.684 707.764C374.579 693.848 371.275 668.398 370.837 653.394C370.388 638.087 372.663 618.365 375.112 597.132L388.615 479.915C404.315 491.074 423.079 501.908 441.256 512.397L546.596 573.214C564.768 583.711 583.534 594.546 601.045 602.561L506.285 672.864C489.121 685.602 473.179 697.433 459.697 704.698ZM412.374 438.315C426.665 448.991 445.362 459.78 466.753 472.13L568.735 531.01C590.127 543.36 608.825 554.161 625.216 561.2C642.916 568.801 661.425 573.643 682.184 570.896C702.942 568.151 719.555 558.662 734.669 546.723C748.667 535.664 763.914 520.378 781.359 502.89L927.911 355.986C897.393 259.955 832.337 174.573 738.195 120.22C643.895 65.776 537.22 52.1683 438.654 73.9145L384.8 273.937C378.376 297.787 372.762 318.636 370.186 336.289C367.403 355.347 367.492 374.478 375.494 393.829C383.496 413.18 396.941 426.788 412.374 438.315Z" fill="#38A3EE"></path>
</svg><style>@media (prefers-color-scheme: light) { :root { filter: none; } }
@media (prefers-color-scheme: dark) { :root { filter: none; } }
</style></svg>